<svg width="252" height="280" viewBox="0 0 252 280" fill="none" xmlns="http://www.w3.org/2000/svg">
<path d="M0 0.399979V-2.60002H-3V0.399979H0ZM70.8 0.399979H73.8V-2.60002H70.8V0.399979ZM70.8 108.4H67.8V111.4H70.8V108.4ZM180.4 108.4V111.4H183.4V108.4H180.4ZM180.4 0.399979V-2.60002H177.4V0.399979H180.4ZM251.2 0.399979H254.2V-2.60002H251.2V0.399979ZM251.2 280V283H254.2V280H251.2ZM180.4 280H177.4V283H180.4V280ZM180.4 167.2H183.4V164.2H180.4V167.2ZM70.8 167.2V164.2H67.8V167.2H70.8ZM70.8 280V283H73.8V280H70.8ZM0 280H-3V283H0V280ZM0 3.39996H70.8V-2.60002H0V3.39996ZM67.8 0.399979V108.4H73.8V0.399979H67.8ZM70.8 111.4H180.4V105.4H70.8V111.4ZM183.4 108.4V0.399979H177.4V108.4H183.4ZM180.4 3.39996H251.2V-2.60002H180.4V3.39996ZM248.2 0.399979V280H254.2V0.399979H248.2ZM251.2 277H180.4V283H251.2V277ZM183.4 280V167.2H177.4V280H183.4ZM180.4 164.2H70.8V170.2H180.4V164.2ZM67.8 167.2V280H73.8V167.2H67.8ZM70.8 277H0V283H70.8V277ZM3 280V0.399979H-3V280H3Z" fill="white"/>
</svg>
