<svg width="259" height="280" viewBox="0 0 259 280" fill="none" xmlns="http://www.w3.org/2000/svg">
<path d="M0 0.399979V-2.60002H-3V0.399979H0ZM70.8 0.399979H73.8V-2.60002H70.8V0.399979ZM70.8 116.4H67.8V124.704L73.1073 118.317L70.8 116.4ZM167.2 0.399979V-2.60002H165.792L164.893 -1.51744L167.2 0.399979ZM251.2 0.399979L253.506 2.31918L257.6 -2.60002H251.2V0.399979ZM138 136.4L135.694 134.481L134.088 136.41L135.704 138.331L138 136.4ZM258.8 280V283H265.244L261.096 278.069L258.8 280ZM174.8 280L172.505 281.932L173.404 283H174.8V280ZM70.8 156.4L73.0955 154.469L67.8 148.175V156.4H70.8ZM70.8 280V283H73.8V280H70.8ZM0 280H-3V283H0V280ZM0 3.39996H70.8V-2.60002H0V3.39996ZM67.8 0.399979V116.4H73.8V0.399979H67.8ZM73.1073 118.317L169.507 2.31738L164.893 -1.51744L68.4927 114.483L73.1073 118.317ZM167.2 3.39996H251.2V-2.60002H167.2V3.39996ZM248.894 -1.51924L135.694 134.481L140.306 138.319L253.506 2.31918L248.894 -1.51924ZM135.704 138.331L256.504 281.931L261.096 278.069L140.296 134.469L135.704 138.331ZM258.8 277H174.8V283H258.8V277ZM177.096 278.068L73.0955 154.469L68.5045 158.331L172.505 281.932L177.096 278.068ZM67.8 156.4V280H73.8V156.4H67.8ZM70.8 277H0V283H70.8V277ZM3 280V0.399979H-3V280H3Z" fill="white"/>
</svg>
