<svg id="Capa_1" data-name="Capa 1" xmlns="http://www.w3.org/2000/svg" width="1800" height="501.27" viewBox="0 0 1800 501.27"><defs><style>.cls-1{fill:#212220;}</style></defs><path class="cls-1" d="M1131.67,235.85a29.06,29.06,0,0,0-7.63-1.08c-15.8,0-27.24,10.89-27.24,30V411.8c0,30,18.52,49.05,49.58,49.05,27.78,0,39.76-10.35,39.76-23.43a18.45,18.45,0,0,0-2.72-10.35c-6.54,3.26-16.88,6-24.51,6-17.44,0-27.24-7.62-27.24-29.42V307.76a114.06,114.06,0,0,1,25-2.72c10.36,0,21.25,1.09,31.61,4.36a26,26,0,0,0,2.18-10.88c0-13.64-8.72-20.72-30.51-20.72a99.43,99.43,0,0,0-28.33,4.37Z"/><path class="cls-1" d="M1024.34,279.43c-2.73,0-6.52.55-12.52,2.17V409.08a53.93,53.93,0,0,1-44.67,24c-16.89,0-27.25-10.89-27.25-30.51V304.49c0-14.7-7.63-25.06-21.76-25.06-3.3,0-8.2,0-13.1,2.17v128C905,448.31,931.2,462,956.8,462c21.25,0,43-10.37,55-25.07V438c0,12,4.9,20.71,20.7,20.71a33.7,33.7,0,0,0,14.17-3.28V304.49c0-14.7-7.08-25.06-22.35-25.06Z"/><path class="cls-1" d="M1728.72,275.08c-38.13,0-63.18,13.07-63.18,30,0,5.45,1.62,10.35,6.53,13.07a97,97,0,0,1,46.85-12.52c30.51,0,45.22,12.52,45.22,46.84v3.81a164.45,164.45,0,0,0-24.52-1.62c-50.67,0-82.25,20.71-82.25,57.18,0,30.53,22.31,50.15,55.56,50.15,22.33,0,41.41-10.91,50.66-25.07-1.09,13.08,7.64,21.8,21.81,21.8,3.79,0,9.8-1.11,13.6-3.28V345.89c0-49.57-25.61-70.81-70.28-70.81Zm35.42,136.18c-6.55,14.72-21.24,24.53-38.68,24.53-20.15,0-31-9.81-31-25.6,0-18.54,14.15-31.07,47.37-31.07a158.21,158.21,0,0,1,22.35,1.64Z"/><path class="cls-1" d="M1539.15,326.83c0-16.89,14.71-23.43,35.41-23.43,20.16,0,33.77,4.9,45.76,12,3.27-2.18,6-7.09,6-12,0-15.79-12-28.32-53.38-28.32-43,0-70.29,21.24-70.29,54.48,0,39.76,31.61,47.39,58.86,53.39,19.6,4.35,37,8.7,37,26.68,0,16.91-16.34,23.43-38.14,23.43-19.05,0-34.32-3.27-49.57-12-3.81,3.27-5.44,8.71-5.44,13.07,0,16.35,14.7,27.8,52.3,27.8,50.65,0,76.25-21.82,76.25-55,0-39.78-31.59-47.41-57.73-54-19.63-4.88-37-8.71-37-26.13Z"/><path class="cls-1" d="M1301.1,275.08c-16.36,0-38.69,13.61-45.76,33.76,3.27-22.31-8.18-29.41-19.07-29.41-4.91,0-10.36,1.64-14.71,2.74V438c0,8.72,4.9,20.71,21.23,20.71a31.39,31.39,0,0,0,13.63-3.28V338.81c6-19.05,20.71-35.41,46.29-35.41a85.41,85.41,0,0,1,15.81,1.09,21.15,21.15,0,0,0,3.81-12.52c0-8.71-5.43-16.89-21.23-16.89Z"/><path class="cls-1" d="M732.35,458.68a54,54,0,0,0,12.53-2.2V329c8.73-13.09,26.7-24,44.12-24,20.71,0,32.69,11.42,32.69,34.33V433.6c0,14.71,7.64,25.08,21.79,25.08,3.28,0,8.18,0,13.08-2.2V332.27c0-38.67-26.69-56.11-57.19-56.11-24.52,0-43,12.53-54.49,25.06v-1.09c0-12-4.89-20.7-20.7-20.7A33.64,33.64,0,0,0,710,282.7V433.6c0,14.71,7.08,25.08,22.33,25.08Z"/><path class="cls-1" d="M1476,329.56c0-31.58-23.41-54.48-66.45-54.48-47.93,0-81.72,36.5-81.72,94.24,0,58.83,33.79,92.63,88.25,92.63,34.33,0,58.84-10.91,58.84-28.35,0-4.35-1.64-9.25-4.91-12-12.52,8.16-28.31,12-44.1,12-32.7,0-59.39-19.07-61.57-56.65a127.58,127.58,0,0,0,32.13,4.36c47.94,0,79.53-19.05,79.53-51.75Zm-66.45-25.62c21.79,0,31,10.37,31,24.52,0,16.35-16.34,26.16-47.39,26.16a117,117,0,0,1-27.78-3.28C1366.47,320.84,1385,303.94,1409.5,303.94Z"/><path class="cls-1" d="M69.56,144.83a23.93,23.93,0,1,0-27.38-19.94A23.93,23.93,0,0,0,69.56,144.83ZM199.79,53.78a23.93,23.93,0,1,0-27.48-19.72A23.88,23.88,0,0,0,199.79,53.78ZM351.53,54a23.93,23.93,0,1,0-22.64-25.16A23.9,23.9,0,0,0,351.53,54Zm129.16,91.36A23.93,23.93,0,1,0,462.14,117,23.93,23.93,0,0,0,480.69,145.35Zm55.83,94.46a23.94,23.94,0,1,0,21.05,26.51A23.92,23.92,0,0,0,536.52,239.81ZM27.44,293.68a23.92,23.92,0,1,0-28-19A23.93,23.93,0,0,0,27.44,293.68Zm212.81-27.29c2.11-1.48,2.41-3.69.17-7.93-46-71.28-128.8-90.28-168-90.28-25.11,0-39.58,11.34-39.58,11.34,117.85,2.57,200.24,85.27,200.24,85.27C235.69,267.16,238.12,267.89,240.25,266.39ZM134.55,163.53c2.66,2.21,5.21,3.16,6.82,1.83,1-.84,1.32-2.65-.56-5.49-24.18-36.48-16.63-82-16.63-82S89.78,126.32,134.55,163.53ZM238,189.8c.86,2.91,2.61,6.12,6,5.81,3.09-.3,3.93-2.12,4-6.77-2.41-81.1-70.15-144.63-116.16-129.48C185.89,81.46,222.8,137.94,238,189.8Zm-5.48-94.09c2.67-.37,2.65-3.3,2.53-5.3-3.22-50.94,29-77,29-77l-6.62,2c-31.1,9.46-34.92,47.85-29,75.28C229.17,94.29,230.69,96,232.51,95.71Zm65.36,142c3.73-.91,2.87-6.82,2.87-6.82-9.47-94.12,61.94-149.78,90.91-163.61C338,64.51,290.2,110.64,283.79,172.57A128.17,128.17,0,0,0,292,233.46C293.49,236.6,295.39,238.32,297.87,237.73Zm5.94-153s-.87,4.58,2.33,6.18c2.25,1.12,4.49.5,6.51-3.46,9.7-20.27,12-56.47-20.36-87.48C292.29,0,310.4,38.51,303.81,84.76Zm72,121.07s-5.37,3.38-3,7.51c1.27,2.21,4.19,3.07,7.83,1.69,31.69-15.45,55.49-44.11,64.92-80.14a122.18,122.18,0,0,0-8.7-85A172.24,172.24,0,0,1,432.7,117C422.94,154.3,402.24,185.08,375.79,205.83Zm69.47-32.32c-3.29,2.66-3.47,5.13-2.24,6.74,1.59,2.06,4.37,2.15,6.74,1.33,46.51-16,85.31-6.26,85.31-6.26C498,150.05,463.08,159.81,445.26,173.51Zm-53.07,98.08c-1.39.15-3.39.92-3.5,2.55s1.62,3,5.81,3.69c65.72,7.25,130.19-36.06,117.65-81.81C498.25,226.27,452.09,265,392.19,271.59Zm75.94,7.8c-3.64,0-5.43,1.19-5.88,3.07-.75,3.14,1.59,5.09,4.22,6,43.4,15.21,69.81,49.46,69.81,49.46C523.74,294.86,490.6,280.17,468.13,279.39ZM33.44,213.53s6,18.28,20.59,32.73c21.52,21.34,61.59,40.18,100,35,3.2-.43,5.06-1.92,5-4.45-.07-2.79-2.62-3.39-5.6-3.45C99.23,272.31,33.44,213.53,33.44,213.53Zm63.41,80.26c-.14-2.63-2.17-4.16-6.21-4.43-22.46-1.51-57,9.15-74.26,50.56,0,0,31.81-31.89,74.89-41.1C94.74,298.08,97,296.79,96.85,293.79Zm397.32,204c-7.67-4.48-80.05-41.51-178.58-47.65C283.43,350,339.75,267.74,341.86,264.67c2.55-3.74,2.63-5.92,1.07-7.05-1.89-1.37-4.2-.18-6.56,2.08,0,0-88.63,78.24-39,189.58-5.29-.15-34.57-.3-46.59.66,20.67-31.44,17.06-74.62-1.83-98.85-1.75-2.36-3.35-2.58-4.9-1.75-1.72.9-1.94,3.21-1,5.81,0,0,18.61,49.33-8.56,96-93.31,8.12-162.41,44.27-165.89,46.64a2.12,2.12,0,0,0-1,2.53c.29.81,1.29,1.16,3,.51,2.08-.76,89.84-31.9,210.74-31.93,76.06,0,147.84,11.62,211.35,32.18,1.52.38,2.3.29,2.78-.65S495.45,498.53,494.17,497.8Z"/><path class="cls-1" d="M776.89,123.33H755.2v-11h34.54v43.83a20.72,20.72,0,0,1-4,3.48,43.22,43.22,0,0,1-7.44,4.19,58.79,58.79,0,0,1-10.68,3.56,59.6,59.6,0,0,1-13.86,1.47q-11.94,0-20.61-4a38,38,0,0,1-14.32-11.31,48.52,48.52,0,0,1-8.37-17.27,83.4,83.4,0,0,1-2.71-21.92,78.41,78.41,0,0,1,2.79-21.45A46.42,46.42,0,0,1,719.11,76a39.48,39.48,0,0,1,14.63-11.08q8.91-4,21-4a46.87,46.87,0,0,1,11,1.31,45.67,45.67,0,0,1,9.6,3.41,27.21,27.21,0,0,1,6.82,4.65q2.63,2.55,2.63,4.88a9,9,0,0,1-1.24,4.18,24.3,24.3,0,0,1-2.78,4.18h-2.64A25.11,25.11,0,0,0,774.41,80a36.11,36.11,0,0,0-5.35-3.49,31.65,31.65,0,0,0-6.82-2.63,32.93,32.93,0,0,0-8.43-1q-9.46,0-15.65,3.56a28.21,28.21,0,0,0-9.91,9.37A38,38,0,0,0,723.06,99a78.91,78.91,0,0,0-1.48,15.33,77,77,0,0,0,1.64,16,39.76,39.76,0,0,0,5.57,13.79,30.25,30.25,0,0,0,10.38,9.75q6.42,3.72,16,3.72a38.53,38.53,0,0,0,8-.77,39.91,39.91,0,0,0,6.27-1.86,27.81,27.81,0,0,0,4.57-2.25,16.42,16.42,0,0,0,2.8-2.09Z"/><path class="cls-1" d="M810.65,93.44c1.65-.11,2.58-.16,2.78-.16a12,12,0,0,1,6.44,1.78c1.91,1.19,3.06,3.18,3.48,6a22.67,22.67,0,0,1,6.5-6.11A17.89,17.89,0,0,1,839.93,92a22.62,22.62,0,0,1,3.63.31,16.35,16.35,0,0,1,3.65,1A7.38,7.38,0,0,1,850,95.29a4.81,4.81,0,0,1,1.09,3.26,13.31,13.31,0,0,1-1.25,5.34,29,29,0,0,1-2.47,4.72,15.69,15.69,0,0,0-4.34-2.86,14.89,14.89,0,0,0-5.88-1,15,15,0,0,0-9.3,3.18,12,12,0,0,0-2.94,3.33,7.61,7.61,0,0,0-1.09,3.87v51.43H810.65Z"/><path class="cls-1" d="M863.93,93c1.34-.1,2.27-.16,2.79-.16a11.54,11.54,0,0,1,7.51,2.33q2.87,2.33,2.87,8.21v36.09A42.81,42.81,0,0,0,878,149a8.89,8.89,0,0,0,3.48,5.43,13.6,13.6,0,0,0,5,2.32,28.42,28.42,0,0,0,6.27.62,24,24,0,0,0,7.67-1.17,23.42,23.42,0,0,0,6-2.86,15.73,15.73,0,0,0,3.88-3.64,6.22,6.22,0,0,0,1.38-3.49V93c1.35-.1,2.28-.16,2.8-.16a11.54,11.54,0,0,1,7.51,2.33q2.87,2.33,2.87,8.21v63.2H911.63v-6.82a27.61,27.61,0,0,1-8.67,6.35c-3.71,1.86-8.52,2.79-14.4,2.79s-10.64-.93-13.94-2.79a18.46,18.46,0,0,1-7.36-7.12,23.89,23.89,0,0,1-2.86-9.53c-.32-3.46-.47-6.79-.47-10Z"/><path class="cls-1" d="M947.73,93.44c1.55-.11,2.53-.16,2.94-.16a11.83,11.83,0,0,1,6.42,1.7,8.7,8.7,0,0,1,3.65,5.73A24,24,0,0,1,969,94.6,30,30,0,0,1,982.11,92a31.86,31.86,0,0,1,11.39,2,24.6,24.6,0,0,1,9.44,6.42,31.43,31.43,0,0,1,6.51,11.47,54,54,0,0,1,2.41,17.27q0,11.61-2.87,19.28a32.85,32.85,0,0,1-7.44,12.16A26.16,26.16,0,0,1,991.41,167a34.22,34.22,0,0,1-10.84,1.86q-8.37,0-13.17-2.86c-3.21-1.92-5.37-3.64-6.51-5.19V200H947.73ZM960.89,149a21.47,21.47,0,0,0,2.48,2.71,18.44,18.44,0,0,0,3.8,2.72,29.19,29.19,0,0,0,5.11,2.16,19.7,19.7,0,0,0,6.12.93q9.58,0,14.48-7.12T997.75,130a52.87,52.87,0,0,0-1-10.53,25.49,25.49,0,0,0-3.25-8.52,16.43,16.43,0,0,0-6-5.66,19.28,19.28,0,0,0-9.38-2.09q-7.43,0-12.31,3.1t-4.88,7.44Z"/><path class="cls-1" d="M1034.93,157.41a34.43,34.43,0,0,1-5.88-12.32,57.25,57.25,0,0,1-1.87-14.79,49.43,49.43,0,0,1,2.17-14.71,35.1,35.1,0,0,1,6.51-12.17,32,32,0,0,1,10.77-8.28,34.46,34.46,0,0,1,15.1-3.1,35.13,35.13,0,0,1,15.48,3.1,29,29,0,0,1,10.38,8.28,34,34,0,0,1,5.89,12,54.51,54.51,0,0,1,1.86,14.41,57.21,57.21,0,0,1-1.86,14.64,35.29,35.29,0,0,1-6,12.46,29.81,29.81,0,0,1-10.61,8.68,35.15,35.15,0,0,1-15.8,3.25q-9.3,0-15.72-3.1A28.43,28.43,0,0,1,1034.93,157.41Zm16.26-2.17a18.12,18.12,0,0,0,9.92,2.48,18.8,18.8,0,0,0,10.22-2.56,17.84,17.84,0,0,0,6.2-6.5,28.83,28.83,0,0,0,3-8.91,57.31,57.31,0,0,0,.85-9.76,53.33,53.33,0,0,0-.85-9.52,26.94,26.94,0,0,0-3-8.52,16.87,16.87,0,0,0-6-6.12,19.41,19.41,0,0,0-10.08-2.32,19.1,19.1,0,0,0-9.83,2.32,17.77,17.77,0,0,0-6.27,6.12,26.63,26.63,0,0,0-3.33,8.52,45.62,45.62,0,0,0-1,9.52,56.34,56.34,0,0,0,.86,9.76,26,26,0,0,0,3.17,8.91A20.46,20.46,0,0,0,1051.19,155.24Z"/></svg>