<svg width="193" height="280" viewBox="0 0 193 280" fill="none" xmlns="http://www.w3.org/2000/svg">
<path d="M0 0.399979V-2.60002H-3V0.399979H0ZM70.8 0.399979H73.8V-2.60002H70.8V0.399979ZM70.8 220.4H67.8V223.4H70.8V220.4ZM192.4 220.4H195.4V217.4H192.4V220.4ZM192.4 280V283H195.4V280H192.4ZM0 280H-3V283H0V280ZM0 3.39996H70.8V-2.60002H0V3.39996ZM67.8 0.399979V220.4H73.8V0.399979H67.8ZM70.8 223.4H192.4V217.4H70.8V223.4ZM189.4 220.4V280H195.4V220.4H189.4ZM192.4 277H0V283H192.4V277ZM3 280V0.399979H-3V280H3Z" fill="white"/>
</svg>
