<svg width="304" height="280" viewBox="0 0 304 280" fill="none" xmlns="http://www.w3.org/2000/svg">
<path d="M-40 0.399976V-2.60002H-43.9406L-42.8918 1.19843L-40 0.399976ZM32.8 0.399976L35.6869 -0.415895L35.0697 -2.60002H32.8V0.399976ZM79.6 166L76.7131 166.816L79.6503 177.209L82.4941 166.79L79.6 166ZM124.8 0.399976V-2.60002H122.509L121.906 -0.389968L124.8 0.399976ZM175.2 0.399976L178.107 -0.342454L177.53 -2.60002H175.2V0.399976ZM217.6 166.4L214.693 167.142L217.469 178.011L220.489 167.208L217.6 166.4ZM264 0.399976V-2.60002H261.724L261.111 -0.407623L264 0.399976ZM336.8 0.399976L339.692 1.19843L340.741 -2.60002H336.8V0.399976ZM259.6 280V283H261.884L262.492 280.798L259.6 280ZM194.4 280L191.514 280.818L192.132 283H194.4V280ZM148.4 117.6L151.286 116.782L148.387 106.547L145.512 116.789L148.4 117.6ZM102.8 280V283H105.074L105.688 280.811L102.8 280ZM37.2 280L34.3082 280.798L34.9161 283H37.2V280ZM-40 3.39998H32.8V-2.60002H-40V3.39998ZM29.9131 1.21585L76.7131 166.816L82.4869 165.184L35.6869 -0.415895L29.9131 1.21585ZM82.4941 166.79L127.694 1.18992L121.906 -0.389968L76.7059 165.21L82.4941 166.79ZM124.8 3.39998H175.2V-2.60002H124.8V3.39998ZM172.293 1.14241L214.693 167.142L220.507 165.658L178.107 -0.342454L172.293 1.14241ZM220.489 167.208L266.889 1.20757L261.111 -0.407623L214.711 165.592L220.489 167.208ZM264 3.39998H336.8V-2.60002H264V3.39998ZM333.908 -0.398474L256.708 279.202L262.492 280.798L339.692 1.19843L333.908 -0.398474ZM259.6 277H194.4V283H259.6V277ZM197.286 279.182L151.286 116.782L145.514 118.418L191.514 280.818L197.286 279.182ZM145.512 116.789L99.9117 279.189L105.688 280.811L151.288 118.411L145.512 116.789ZM102.8 277H37.2V283H102.8V277ZM40.0918 279.202L-37.1082 -0.398474L-42.8918 1.19843L34.3082 280.798L40.0918 279.202Z" fill="white"/>
</svg>
